<svg width="55" height="55" viewBox="0 0 55 55" fill="none" xmlns="http://www.w3.org/2000/svg">
<path fill-rule="evenodd" clip-rule="evenodd" d="M29.8798 24.0397C38.2421 27.1879 44.196 35.2587 44.196 44.7093C44.196 47.5945 42.2965 50.0519 38.9473 51.783C34.8595 53.895 28.4832 55 22.099 55C15.7129 55 9.33656 53.895 5.2507 51.783C1.90148 50.0519 0 47.5945 0 44.7093C0 35.2587 5.9559 27.1879 14.3182 24.0397C10.9807 21.6275 8.80816 17.7039 8.80816 13.278C8.80816 5.94907 14.7641 0 22.099 0C29.4339 0 35.3879 5.94907 35.3879 13.278C35.3879 17.7039 33.2153 21.6275 29.8798 24.0397ZM44.196 22.5539H39.2851C38.2008 22.5539 37.3208 21.6746 37.3208 20.5911C37.3208 19.5077 38.2008 18.6284 39.2851 18.6284H44.196V13.7215C44.196 12.6381 45.0761 11.7588 46.1604 11.7588C47.2447 11.7588 48.1248 12.6381 48.1248 13.7215V18.6284H53.0356C54.12 18.6284 55 19.5077 55 20.5911C55 21.6746 54.12 22.5539 53.0356 22.5539H48.1248V27.4607C48.1248 28.5442 47.2447 29.4235 46.1604 29.4235C45.0761 29.4235 44.196 28.5442 44.196 27.4607V22.5539Z" fill="#FFA500"/>
</svg>
