<svg width="244" height="24" viewBox="0 0 244 24" fill="none" xmlns="http://www.w3.org/2000/svg">
<path d="M50.8983 23.5385V0.461538H62.7981C65.8561 0.461538 68.1386 1.02198 69.6454 2.14286C71.1523 3.24176 71.9057 4.69231 71.9057 6.49451C71.9057 7.68132 71.5844 8.72528 70.9418 9.62637C70.3213 10.5055 69.4349 11.2088 68.2826 11.7363C67.1525 12.2418 65.8007 12.4945 64.2274 12.4945L64.8922 10.9121C66.532 10.9121 67.9613 11.1648 69.1801 11.6703C70.3989 12.1538 71.3407 12.8681 72.0055 13.8132C72.6924 14.7363 73.0359 15.8681 73.0359 17.2088C73.0359 19.2088 72.216 20.7692 70.5762 21.8901C68.9585 22.989 66.5874 23.5385 63.4629 23.5385H50.8983ZM57.4132 18.8242H62.931C64.0612 18.8242 64.9143 18.6374 65.4905 18.2637C66.0888 17.8681 66.388 17.2747 66.388 16.4835C66.388 15.6923 66.0888 15.1099 65.4905 14.7363C64.9143 14.3407 64.0612 14.1429 62.931 14.1429H56.9479V9.62637H61.9338C63.0418 9.62637 63.8728 9.43956 64.4268 9.06594C64.9808 8.69231 65.2578 8.13187 65.2578 7.38462C65.2578 6.63736 64.9808 6.08791 64.4268 5.73626C63.8728 5.36264 63.0418 5.17582 61.9338 5.17582H57.4132V18.8242Z" fill="white"/>
<path d="M82.4944 9.39561H93.2973V14.2747H82.4944V9.39561ZM82.9597 18.4945H95.1255V23.5385H76.4448V0.461538H94.6934V5.50549H82.9597V18.4945Z" fill="white"/>
<path d="M95.9855 23.5385L106.257 0.461538H112.738L123.043 23.5385H116.195L108.151 3.65934H110.744L102.7 23.5385H95.9855ZM101.603 19.0549L103.298 14.2418H114.666L116.361 19.0549H101.603Z" fill="white"/>
<path d="M128.693 23.5385V5.63736H121.546V0.461538H142.387V5.63736H135.274V23.5385H128.693Z" fill="white"/>
<path d="M144.839 23.5385V0.461538H156.739C159.797 0.461538 162.08 1.02198 163.586 2.14286C165.093 3.24176 165.847 4.69231 165.847 6.49451C165.847 7.68132 165.525 8.72528 164.883 9.62637C164.262 10.5055 163.376 11.2088 162.224 11.7363C161.094 12.2418 159.742 12.4945 158.168 12.4945L158.833 10.9121C160.473 10.9121 161.902 11.1648 163.121 11.6703C164.34 12.1538 165.282 12.8681 165.946 13.8132C166.633 14.7363 166.977 15.8681 166.977 17.2088C166.977 19.2088 166.157 20.7692 164.517 21.8901C162.9 22.989 160.528 23.5385 157.404 23.5385H144.839ZM151.354 18.8242H156.872C158.002 18.8242 158.855 18.6374 159.432 18.2637C160.03 17.8681 160.329 17.2747 160.329 16.4835C160.329 15.6923 160.03 15.1099 159.432 14.7363C158.855 14.3407 158.002 14.1429 156.872 14.1429H150.889V9.62637H155.875C156.983 9.62637 157.814 9.43956 158.368 9.06594C158.922 8.69231 159.199 8.13187 159.199 7.38462C159.199 6.63736 158.922 6.08791 158.368 5.73626C157.814 5.36264 156.983 5.17582 155.875 5.17582H151.354V18.8242Z" fill="white"/>
<path d="M167.594 23.5385L177.865 0.461538H184.346L194.651 23.5385H187.803L179.759 3.65934H182.352L174.308 23.5385H167.594ZM173.211 19.0549L174.906 14.2418H186.274L187.97 19.0549H173.211Z" fill="white"/>
<path d="M207.793 24C205.953 24 204.247 23.7143 202.674 23.1429C201.123 22.5494 199.771 21.7143 198.619 20.6374C197.488 19.5604 196.602 18.2967 195.959 16.8462C195.317 15.3736 194.995 13.7582 194.995 12C194.995 10.2418 195.317 8.63736 195.959 7.18681C196.602 5.71429 197.488 4.43956 198.619 3.36264C199.771 2.28571 201.123 1.46154 202.674 0.89011C204.247 0.296703 205.953 0 207.793 0C209.942 0 211.859 0.373627 213.543 1.12088C215.249 1.86813 216.668 2.94506 217.798 4.35165L213.61 8.10989C212.856 7.23077 212.025 6.56044 211.117 6.0989C210.23 5.63736 209.233 5.40659 208.125 5.40659C207.172 5.40659 206.297 5.56044 205.499 5.86813C204.701 6.17582 204.014 6.62637 203.438 7.21978C202.884 7.79121 202.441 8.48352 202.109 9.2967C201.798 10.1099 201.643 11.011 201.643 12C201.643 12.989 201.798 13.8901 202.109 14.7033C202.441 15.5165 202.884 16.2198 203.438 16.8132C204.014 17.3846 204.701 17.8242 205.499 18.1319C206.297 18.4396 207.172 18.5934 208.125 18.5934C209.233 18.5934 210.23 18.3626 211.117 17.9011C212.025 17.4396 212.856 16.7692 213.61 15.8901L217.798 19.6484C216.668 21.033 215.249 22.1099 213.543 22.8791C211.859 23.6264 209.942 24 207.793 24Z" fill="white"/>
<path d="M226.616 18.4286L226.25 11.1099L236.255 0.461538H243.501L233.53 11.1758L229.873 14.967L226.616 18.4286ZM220.732 23.5385V0.461538H227.247V23.5385H220.732ZM236.355 23.5385L228.776 14.011L233.064 9.46154L244 23.5385H236.355Z" fill="white"/>
<path fill-rule="evenodd" clip-rule="evenodd" d="M0 0.461515V23.5384H12.5646C15.6891 23.5384 18.0602 22.989 19.6779 21.8901C19.7009 21.8744 19.7238 21.8585 19.7464 21.8426C19.7691 21.8585 19.792 21.8744 19.815 21.8901C21.4327 22.989 23.8038 23.5384 26.9283 23.5384H39.4929V0.461515H27.5931C24.535 0.461515 22.2526 1.02195 20.7457 2.14283C20.3644 2.42093 20.0313 2.72155 19.7464 3.04469C19.4616 2.72155 19.1285 2.42093 18.7472 2.14283C17.2403 1.02195 14.9579 0.461515 11.8998 0.461515H0ZM19.7464 10.01C19.2489 10.5972 18.6171 11.0956 17.851 11.5052C17.9974 11.5569 18.141 11.6119 18.2818 11.6703C18.8251 11.8858 19.3133 12.1472 19.7464 12.4544C20.1796 12.1472 20.6678 11.8858 21.2111 11.6703C21.3519 11.6119 21.4955 11.5569 21.6419 11.5052C20.8758 11.0956 20.244 10.5972 19.7464 10.01ZM12.0328 18.8242H6.51498V14.1428H12.0328C13.1629 14.1428 14.0161 14.3406 14.5922 14.7362C15.1905 15.1099 15.4897 15.6923 15.4897 16.4835C15.4897 17.2747 15.1905 17.8681 14.5922 18.2637C14.0161 18.6373 13.1629 18.8242 12.0328 18.8242ZM6.51498 9.62635V5.1758H11.0356C12.1436 5.1758 12.9746 5.36261 13.5286 5.73624C14.0825 6.08789 14.3595 6.63734 14.3595 7.38459C14.3595 8.13185 14.0825 8.69228 13.5286 9.06591C12.9746 9.43954 12.1436 9.62635 11.0356 9.62635H6.51498ZM27.4601 18.8242H32.9779V14.1428H27.4601C26.33 14.1428 25.4768 14.3406 24.9007 14.7362C24.3024 15.1099 24.0032 15.6923 24.0032 16.4835C24.0032 17.2747 24.3024 17.8681 24.9007 18.2637C25.4768 18.6373 26.33 18.8242 27.4601 18.8242ZM32.9779 9.62635H28.4573C27.3493 9.62635 26.5183 9.43954 25.9643 9.06591C25.4103 8.69228 25.1334 8.13185 25.1334 7.38459C25.1334 6.63734 25.4103 6.08789 25.9643 5.73624C26.5183 5.36261 27.3493 5.1758 28.4573 5.1758H32.9779V9.62635Z" fill="#00DF82"/>
<path fill-rule="evenodd" clip-rule="evenodd" d="M0 0.461515V23.5384H12.5646C15.6891 23.5384 18.0602 22.989 19.6779 21.8901C19.7009 21.8744 19.7238 21.8585 19.7464 21.8426C19.7691 21.8585 19.792 21.8744 19.815 21.8901C21.4327 22.989 23.8038 23.5384 26.9283 23.5384H39.4929V0.461515H27.5931C24.535 0.461515 22.2526 1.02195 20.7457 2.14283C20.3644 2.42093 20.0313 2.72155 19.7464 3.04469C19.4616 2.72155 19.1285 2.42093 18.7472 2.14283C17.2403 1.02195 14.9579 0.461515 11.8998 0.461515H0ZM19.7464 10.01C19.2489 10.5972 18.6171 11.0956 17.851 11.5052C17.9974 11.5569 18.141 11.6119 18.2818 11.6703C18.8251 11.8858 19.3133 12.1472 19.7464 12.4544C20.1796 12.1472 20.6678 11.8858 21.2111 11.6703C21.3519 11.6119 21.4955 11.5569 21.6419 11.5052C20.8758 11.0956 20.244 10.5972 19.7464 10.01ZM12.0328 18.8242H6.51498V14.1428H12.0328C13.1629 14.1428 14.0161 14.3406 14.5922 14.7362C15.1905 15.1099 15.4897 15.6923 15.4897 16.4835C15.4897 17.2747 15.1905 17.8681 14.5922 18.2637C14.0161 18.6373 13.1629 18.8242 12.0328 18.8242ZM6.51498 9.62635V5.1758H11.0356C12.1436 5.1758 12.9746 5.36261 13.5286 5.73624C14.0825 6.08789 14.3595 6.63734 14.3595 7.38459C14.3595 8.13185 14.0825 8.69228 13.5286 9.06591C12.9746 9.43954 12.1436 9.62635 11.0356 9.62635H6.51498ZM27.4601 18.8242H32.9779V14.1428H27.4601C26.33 14.1428 25.4768 14.3406 24.9007 14.7362C24.3024 15.1099 24.0032 15.6923 24.0032 16.4835C24.0032 17.2747 24.3024 17.8681 24.9007 18.2637C25.4768 18.6373 26.33 18.8242 27.4601 18.8242ZM32.9779 9.62635H28.4573C27.3493 9.62635 26.5183 9.43954 25.9643 9.06591C25.4103 8.69228 25.1334 8.13185 25.1334 7.38459C25.1334 6.63734 25.4103 6.08789 25.9643 5.73624C26.5183 5.36261 27.3493 5.1758 28.4573 5.1758H32.9779V9.62635Z" fill="url(#paint0_linear_100_167)"/>
<defs>
<linearGradient id="paint0_linear_100_167" x1="-3.12083" y1="1.51754" x2="43.6874" y2="30.0572" gradientUnits="userSpaceOnUse">
<stop offset="0.18741" stop-color="#E90095"/>
<stop offset="0.778139" stop-color="#00FFFF"/>
</linearGradient>
</defs>
</svg>
