<svg width="306" height="63" viewBox="0 0 306 63" fill="none" xmlns="http://www.w3.org/2000/svg">
<g clip-path="url(#clip0_141_371)">
<path d="M18.716 26.4267L30.6024 14.3901L42.4936 26.4365L49.4059 19.429L30.6024 0.375046L11.7988 19.4241L18.716 26.4267Z" fill="#F3BA2F"/>
<path d="M-0.00292969 31.3761L6.91174 24.3712L13.8264 31.3761L6.91174 38.381L-0.00292969 31.3761Z" fill="#F3BA2F"/>
<path d="M18.7159 36.3234L30.6023 48.3649L42.4935 36.3185L49.4107 43.3162L49.4058 43.3211L30.6023 62.375L11.7987 43.3309L11.7891 43.3211L18.7159 36.3234Z" fill="#F3BA2F"/>
<path d="M47.3672 31.3778L54.2819 24.3729L61.1965 31.3778L54.2819 38.3828L47.3672 31.3778Z" fill="#F3BA2F"/>
<path d="M37.6165 31.3726L30.6026 24.2623L25.416 29.5167L24.8166 30.119L23.5888 31.3628L23.5791 31.3726L23.5888 31.3873L30.6026 38.4878L37.6165 31.3775L37.6213 31.3726H37.6165Z" fill="#F3BA2F"/>
<path d="M71.9854 15.3988H87.0282C90.7599 15.3988 93.5828 16.3782 95.497 18.337C96.2182 19.0605 96.7868 19.925 97.1682 20.8779C97.5496 21.8308 97.7359 22.8522 97.7158 23.8803V23.9733C97.7287 24.8155 97.613 25.6547 97.3726 26.461C97.1584 27.1551 96.8475 27.8147 96.4493 28.4197C96.0781 28.9903 95.6289 29.5047 95.1152 29.9476C94.6132 30.3852 94.0634 30.7631 93.4765 31.0739C95.1691 31.6711 96.6911 32.68 97.9091 34.012C98.9854 35.2526 99.5236 36.9665 99.5236 39.1538V39.2469C99.5542 40.6129 99.2608 41.9664 98.668 43.1938C98.0937 44.3246 97.2517 45.2937 96.2173 46.0144C95.0479 46.8086 93.7458 47.3811 92.3744 47.7038C90.7451 48.0953 89.0748 48.2844 87.4004 48.267H71.9854V15.3988ZM85.52 28.6891C86.8215 28.7528 88.1167 28.4691 89.2759 27.8664C89.728 27.5989 90.0971 27.2085 90.3414 26.7394C90.5858 26.2703 90.6956 25.7413 90.6584 25.2123V25.1192C90.6823 24.6318 90.5846 24.146 90.3742 23.707C90.1638 23.2679 89.8476 22.8896 89.4548 22.6071C88.6524 22.0293 87.4939 21.7403 85.9793 21.7403H78.9412V28.6891H85.52ZM87.4197 41.9353C88.7164 42.0089 90.007 41.7083 91.1418 41.0685C91.5838 40.7808 91.9417 40.3783 92.178 39.9028C92.4144 39.4274 92.5206 38.8965 92.4856 38.3654V38.2724C92.503 37.7675 92.398 37.2661 92.1797 36.8119C91.9614 36.3577 91.6366 35.9647 91.2336 35.6672C90.4022 35.0143 89.0584 34.6878 87.2022 34.6878H78.9412V41.9353H87.4197Z" fill="#F3BA2F"/>
<path d="M108.485 15.3988H115.625V48.2768H108.485V15.3988Z" fill="#F3BA2F"/>
<path d="M126.429 15.3988H133.012L148.229 35.6329V15.3988H155.277V48.2768H149.201L133.486 27.3767V48.2768H126.429V15.3988Z" fill="#F3BA2F"/>
<path d="M176.894 15.1638H183.468L197.375 48.2768H189.921L186.953 40.902H173.23L170.262 48.2768H162.982L176.894 15.1638ZM184.406 34.5164L180.084 23.8509L175.782 34.5164H184.406Z" fill="#F3BA2F"/>
<path d="M205.094 15.3988H211.677L226.885 35.6329V15.3988H233.932V48.2768H227.856L212.141 27.3767V48.2768H205.094V15.3988Z" fill="#F3BA2F"/>
<path d="M259.63 48.8546C257.354 48.8744 255.099 48.428 252.998 47.5423C251.02 46.715 249.226 45.495 247.721 43.9543C246.215 42.4135 245.03 40.5832 244.234 38.5711C243.394 36.4664 242.969 34.2156 242.982 31.9455V31.8525C242.945 27.3778 244.644 23.0674 247.714 19.8501C249.225 18.2786 251.034 17.0327 253.032 16.1872C255.205 15.2752 257.539 14.8204 259.891 14.8504C261.282 14.8398 262.671 14.9661 264.038 15.2274C265.208 15.4515 266.352 15.7978 267.451 16.2607C268.448 16.686 269.397 17.2214 270.279 17.8571C271.139 18.4771 271.948 19.1683 272.696 19.9236L268.157 25.2319C266.997 24.1479 265.696 23.2301 264.29 22.5043C262.908 21.8352 261.393 21.4999 259.862 21.5249C258.588 21.5111 257.325 21.7721 256.159 22.2905C254.992 22.8089 253.947 23.5728 253.094 24.5316C252.249 25.4879 251.586 26.5956 251.142 27.7978C250.676 29.0684 250.442 30.414 250.45 31.7693V31.8623C250.446 33.2156 250.68 34.5589 251.142 35.8288C251.581 37.0354 252.236 38.1494 253.075 39.1146C253.921 40.0853 254.963 40.8605 256.131 41.3877C257.298 41.9149 258.564 42.1818 259.842 42.1703C261.47 42.2223 263.085 41.8674 264.546 41.1371C265.936 40.3695 267.221 39.4213 268.369 38.3164L272.913 42.9685C272.111 43.8507 271.243 44.6692 270.317 45.417C269.408 46.1454 268.42 46.768 267.374 47.2729C266.258 47.8049 265.083 48.1979 263.874 48.4433C262.477 48.727 261.055 48.8649 259.63 48.8546Z" fill="#F3BA2F"/>
<path d="M281.338 15.3988H305.763V21.8334H288.361V28.503H303.685V34.9376H288.386V41.8422H306.005V48.2768H281.352L281.338 15.3988Z" fill="#F3BA2F"/>
</g>
<defs>
<clipPath id="clip0_141_371">
<rect width="306" height="62" fill="white" transform="translate(0 0.375046)"/>
</clipPath>
</defs>
</svg>
