<?xml version="1.0" encoding="UTF-8" standalone="no"?>
<!-- Created with Inkscape (http://www.inkscape.org/) -->

<svg
   width="500mm"
   height="500mm"
   viewBox="0 0 500 500"
   version="1.1"
   id="svg1"
   xml:space="preserve"
   xmlns:inkscape="http://www.inkscape.org/namespaces/inkscape"
   xmlns:sodipodi="http://sodipodi.sourceforge.net/DTD/sodipodi-0.dtd"
   xmlns="http://www.w3.org/2000/svg"
   xmlns:svg="http://www.w3.org/2000/svg"><sodipodi:namedview
     id="namedview1"
     pagecolor="#ffffff"
     bordercolor="#cccccc"
     borderopacity="1"
     inkscape:showpageshadow="0"
     inkscape:pageopacity="1"
     inkscape:pagecheckerboard="0"
     inkscape:deskcolor="#d1d1d1"
     inkscape:document-units="mm"
     showguides="true"><inkscape:page
       x="0"
       y="0"
       width="500"
       height="500"
       id="page2"
       margin="0"
       bleed="0" /></sodipodi:namedview><defs
     id="defs1" /><g
     inkscape:label="Layer 1"
     inkscape:groupmode="layer"
     id="layer1"><g
       id="g22"><g
         style="fill:#dc8add;stroke-width:1.32715"
         id="g21"
         transform="matrix(0.31799643,0,0,0.30514094,42.651987,133.52623)"><g
           id="g2"
           style="fill:#dc8add;stroke-width:1.32715">
	<g
   id="g1"
   style="fill:#dc8add;stroke-width:1.32715">
		<path
   d="M 503.706,53.08 H 8.294 C 3.712,53.08 0,56.792 0,61.374 v 389.253 c 0,4.581 3.712,8.294 8.294,8.294 H 79.62 c 4.581,0 8.294,-3.712 8.294,-8.294 0,-4.582 -3.712,-8.294 -8.294,-8.294 H 16.587 V 69.667 H 495.412 V 442.332 H 115.006 c -4.581,0 -8.294,3.712 -8.294,8.294 0,4.582 3.712,8.294 8.294,8.294 h 388.7 c 4.581,0 8.294,-3.712 8.294,-8.294 V 61.374 c 0,-4.582 -3.712,-8.294 -8.294,-8.294 z"
   id="path1"
   style="fill:#dc8add;stroke-width:1.32715" />
	</g>
</g><g
           id="g4"
           style="fill:#dc8add;stroke-width:1.32715">
	<g
   id="g3"
   style="fill:#dc8add;stroke-width:1.32715">
		<path
   d="m 270.25,132.601 c -3.77,-2.602 -8.935,-1.655 -11.538,2.114 -2.602,3.77 -1.654,8.935 2.114,11.538 36.101,24.918 57.654,65.945 57.654,109.746 0,73.476 -59.777,133.253 -133.253,133.253 -73.476,0 -133.253,-59.776 -133.253,-133.252 0,-73.476 59.777,-133.253 133.253,-133.253 17.406,0 34.331,3.303 50.302,9.819 4.242,1.732 9.083,-0.305 10.812,-4.546 1.731,-4.242 -0.305,-9.082 -4.546,-10.813 -17.971,-7.331 -37.003,-11.047 -56.568,-11.047 -82.622,0 -149.84,67.218 -149.84,149.84 0,82.622 67.218,149.84 149.84,149.84 82.622,0 149.84,-67.218 149.84,-149.84 0,-49.253 -24.231,-95.383 -64.817,-123.399 z"
   id="path2"
   style="fill:#dc8add;stroke-width:1.32715" />
	</g>
</g><g
           id="g6"
           style="fill:#dc8add;stroke-width:1.32715">
	<g
   id="g5"
   style="fill:#dc8add;stroke-width:1.32715">
		<path
   d="m 185.227,185.78 c -38.72,0 -70.22,31.501 -70.22,70.22 0,38.719 31.501,70.22 70.22,70.22 38.72,0 70.22,-31.501 70.22,-70.22 0,-38.719 -31.501,-70.22 -70.22,-70.22 z m 0,123.853 c -29.573,0 -53.633,-24.06 -53.633,-53.633 0,-29.573 24.06,-53.633 53.633,-53.633 29.573,0 53.633,24.06 53.633,53.633 0,29.573 -24.06,53.633 -53.633,53.633 z"
   id="path4"
   style="fill:#dc8add;stroke-width:1.32715" />
	</g>
</g><g
           id="g8"
           style="fill:#dc8add;stroke-width:1.32715">
	<g
   id="g7"
   style="fill:#dc8add;stroke-width:1.32715">
		<path
   d="m 185.227,230.013 c -14.329,0 -25.987,11.658 -25.987,25.987 0,14.329 11.658,25.987 25.987,25.987 14.329,0 25.987,-11.658 25.987,-25.987 0,-14.329 -11.658,-25.987 -25.987,-25.987 z m 0,35.387 c -5.183,0 -9.4,-4.216 -9.4,-9.4 0,-5.184 4.217,-9.4 9.4,-9.4 5.183,0 9.4,4.217 9.4,9.4 0,5.183 -4.217,9.4 -9.4,9.4 z"
   id="path6"
   style="fill:#dc8add;stroke-width:1.32715" />
	</g>
</g><g
           id="g10"
           style="fill:#dc8add;stroke-width:1.32715">
	<g
   id="g9"
   style="fill:#dc8add;stroke-width:1.32715">
		<path
   d="m 406.57,217.149 -0.362,-42.187 c 19.95,-4.03 35.018,-21.694 35.018,-42.815 0,-24.085 -19.595,-43.68 -43.68,-43.68 -24.085,0 -43.68,19.595 -43.68,43.68 0,21.378 15.442,39.206 35.755,42.946 l 0.391,45.591 c 0.02,2.175 0.891,4.255 2.428,5.793 l 24.112,24.11 v 63.873 l -17.042,16.835 -6.908,-6.908 c -3.24,-3.238 -8.491,-3.238 -11.73,0 l -59.205,59.205 c -3.239,3.24 -3.239,8.491 0,11.73 l 25.022,25.022 c 3.196,3.195 8.534,3.195 11.73,0 l 59.205,-59.205 c 3.239,-3.24 3.239,-8.491 0,-11.73 l -6.384,-6.384 19.434,-19.198 c 1.578,-1.558 2.465,-3.684 2.465,-5.901 v -70.773 c 0,-2.199 -0.874,-4.308 -2.428,-5.865 z m -0.73,-85.074 c -0.04,-4.556 -3.745,-8.223 -8.293,-8.223 -0.023,0 -0.049,0 -0.072,0 -4.58,0.04 -8.262,3.785 -8.223,8.365 l 0.221,25.794 c -11.009,-3.441 -19.02,-13.733 -19.02,-25.863 0,-14.94 12.153,-27.093 27.093,-27.093 14.94,0 27.093,12.153 27.093,27.093 0,11.965 -7.798,22.135 -18.578,25.714 z m -53.287,270.677 -13.293,-13.293 47.477,-47.477 13.293,13.293 z"
   id="path8"
   style="fill:#dc8add;stroke-width:1.32715" />
	</g>
</g><g
           id="g12"
           style="fill:#dc8add;stroke-width:1.32715">
	<g
   id="g11"
   style="fill:#dc8add;stroke-width:1.32715">
		<path
   d="m 468.32,371.559 h -0.553 V 282.54 c 0,-4.581 -3.712,-8.294 -8.294,-8.294 -4.581,0 -8.294,3.712 -8.294,8.294 v 89.019 h -0.553 c -4.581,0 -8.294,3.712 -8.294,8.294 0,4.581 3.712,8.294 8.294,8.294 h 0.553 v 27.093 c 0,4.581 3.712,8.294 8.294,8.294 4.581,0 8.294,-3.712 8.294,-8.294 v -27.093 h 0.553 c 4.581,0 8.294,-3.712 8.294,-8.294 -10e-4,-4.581 -3.713,-8.294 -8.294,-8.294 z"
   id="path10"
   style="fill:#dc8add;stroke-width:1.32715" />
	</g>
</g><g
           id="g14"
           style="fill:#dc8add;stroke-width:1.32715">
	<g
   id="g13"
   style="fill:#dc8add;stroke-width:1.32715">
		<path
   d="m 317.927,88.467 c -14.329,0 -25.987,11.658 -25.987,25.987 0,14.329 11.658,25.987 25.987,25.987 14.329,0 25.987,-11.658 25.987,-25.987 0,-14.329 -11.658,-25.987 -25.987,-25.987 z m 0,35.386 c -5.183,0 -9.4,-4.217 -9.4,-9.4 0,-5.183 4.217,-9.4 9.4,-9.4 5.183,0 9.4,4.216 9.4,9.4 0,5.184 -4.217,9.4 -9.4,9.4 z"
   id="path12"
   style="fill:#dc8add;stroke-width:1.32715" />
	</g>
</g><g
           id="g16"
           style="fill:#dc8add;stroke-width:1.32715">
	<g
   id="g15"
   style="fill:#dc8add;stroke-width:1.32715">
		<path
   d="m 460.579,238.86 h -1.106 c -4.581,0 -8.294,3.712 -8.294,8.294 0,4.581 3.712,8.294 8.294,8.294 h 1.106 c 4.581,0 8.294,-3.712 8.294,-8.294 0,-4.582 -3.713,-8.294 -8.294,-8.294 z"
   id="path14"
   style="fill:#dc8add;stroke-width:1.32715" />
	</g>
</g><g
           id="g18"
           style="fill:#dc8add;stroke-width:1.32715">
	<g
   id="g17"
   style="fill:#dc8add;stroke-width:1.32715">
		<path
   d="m 460.579,203.473 h -1.106 c -4.581,0 -8.294,3.712 -8.294,8.294 0,4.582 3.712,8.294 8.294,8.294 h 1.106 c 4.581,0 8.294,-3.712 8.294,-8.294 0,-4.582 -3.713,-8.294 -8.294,-8.294 z"
   id="path16"
   style="fill:#dc8add;stroke-width:1.32715" />
	</g>
</g><g
           id="g20"
           style="fill:#dc8add;stroke-width:1.32715">
	<g
   id="g19"
   style="fill:#dc8add;stroke-width:1.32715">
		<path
   d="m 460.579,168.086 h -1.106 c -4.581,0 -8.294,3.712 -8.294,8.294 0,4.582 3.712,8.294 8.294,8.294 h 1.106 c 4.581,0 8.294,-3.712 8.294,-8.294 0,-4.582 -3.713,-8.294 -8.294,-8.294 z"
   id="path18"
   style="fill:#dc8add;stroke-width:1.32715" />
	</g>
</g></g><text
         xml:space="preserve"
         style="font-style:normal;font-variant:normal;font-weight:normal;font-stretch:normal;font-size:71.7778px;line-height:1.2;font-family:'Bowlby One SC';-inkscape-font-specification:'Bowlby One SC, Normal';font-variant-ligatures:normal;font-variant-caps:normal;font-variant-numeric:normal;font-variant-east-asian:normal;text-align:center;letter-spacing:3.40958px;word-spacing:0.00681917px;writing-mode:lr-tb;direction:ltr;text-anchor:middle;opacity:1;fill:#000000;stroke-width:0.264582"
         x="349.51181"
         y="185.92203"
         id="text21"
         transform="scale(0.89774965,1.1138963)"><tspan
           sodipodi:role="line"
           id="tspan21"
           style="font-style:normal;font-variant:normal;font-weight:normal;font-stretch:normal;font-size:71.7778px;font-family:'Bowlby One SC';-inkscape-font-specification:'Bowlby One SC, Normal';font-variant-ligatures:normal;font-variant-caps:normal;font-variant-numeric:normal;font-variant-east-asian:normal;letter-spacing:3.40958px;fill:#000000;stroke-width:0.264582"
           x="351.21658"
           y="185.92203">tune</tspan></text><text
         xml:space="preserve"
         style="font-style:normal;font-variant:normal;font-weight:normal;font-stretch:normal;font-size:131.968px;line-height:1.2;font-family:'Delight Mother';-inkscape-font-specification:'Delight Mother, Normal';font-variant-ligatures:normal;font-variant-caps:normal;font-variant-numeric:normal;font-variant-east-asian:normal;text-align:center;letter-spacing:6.26872px;word-spacing:0.0125374px;writing-mode:lr-tb;direction:ltr;text-anchor:middle;opacity:1;fill:#000000;stroke-width:0.264582"
         x="337.41159"
         y="296.2308"
         id="text22"
         transform="scale(1.0137477,0.98643874)"><tspan
           sodipodi:role="line"
           id="tspan22"
           style="font-style:normal;font-variant:normal;font-weight:normal;font-stretch:normal;font-size:131.968px;font-family:'Delight Mother';-inkscape-font-specification:'Delight Mother, Normal';font-variant-ligatures:normal;font-variant-caps:normal;font-variant-numeric:normal;font-variant-east-asian:normal;stroke-width:0.264582"
           x="340.54596"
           y="296.2308">cycle</tspan></text></g></g></svg>
