<svg width="38" height="39" viewBox="0 0 38 39" fill="none" xmlns="http://www.w3.org/2000/svg">
<path d="M36.5911 5.42619L19.2047 0.887424C18.962 0.824635 18.7085 0.824635 18.4658 0.887424L1.07939 5.42619C0.4437 5.59303 0 6.16174 0 6.81472V13.6356C0 24.8443 7.57582 34.9035 18.4221 38.0985C18.5561 38.138 18.6956 38.1595 18.8351 38.1595C18.9745 38.1595 19.114 38.1398 19.248 38.0985C30.0947 34.9035 37.6701 24.8448 37.6701 13.6356V6.81472C37.6701 6.16349 37.2267 5.59299 36.5911 5.42619ZM34.7727 13.6336C34.7727 23.4397 28.2419 32.2534 18.8352 35.2188C9.42851 32.2534 2.89773 23.4397 2.89773 13.6336V7.91997L18.8352 3.76151L34.7727 7.91997V13.6336Z" fill="white"/>
<path d="M13.1831 19.1358C12.513 18.707 11.6147 18.8954 11.18 19.5627C10.7472 20.2283 10.9373 21.1163 11.611 21.5469L17.1292 25.0774C17.3719 25.2317 17.6436 25.307 17.9152 25.307C18.3608 25.307 18.8009 25.1025 19.0852 24.7222L26.4436 14.816C26.918 14.1774 26.7804 13.2785 26.1357 12.8103C25.4909 12.3403 24.5836 12.4802 24.1109 13.1153L17.5602 21.9363L13.1864 19.1395L13.1831 19.1358Z" fill="white"/>
</svg>
