<svg width="59" height="56" viewBox="0 0 59 56" fill="none" xmlns="http://www.w3.org/2000/svg">
<path d="M29.5 0.5C21.8088 0.5 14.4335 3.3977 8.9958 8.55636C3.55576 13.7124 0.5 20.7066 0.5 28C0.5 35.2934 3.55576 42.2872 8.9958 47.4436C14.4331 52.6023 21.8088 55.5 29.5 55.5C37.1912 55.5 44.5665 52.6023 50.0042 47.4436C55.4442 42.2875 58.5 35.2934 58.5 28C58.5 20.7066 55.4442 13.7128 50.0042 8.55636C44.5669 3.3977 37.1912 0.5 29.5 0.5ZM29.5 25.4967C33.3442 25.5122 36.6199 28.1418 37.2699 31.7355C37.9224 35.3268 35.7583 38.8435 32.1398 40.0731V40.5139V40.5113C32.1398 41.8932 30.9572 43.0146 29.4999 43.0146C28.0427 43.0146 26.8601 41.8932 26.8601 40.5113V40.0705V40.0731C23.701 39.0135 21.5886 36.1828 21.5832 33.004C21.5832 31.6222 22.7658 30.5033 24.223 30.5033C25.6803 30.5033 26.8602 31.6222 26.8602 33.004C26.8602 34.0172 27.5045 34.9298 28.4914 35.3165C29.4756 35.7032 30.612 35.4893 31.365 34.7751C32.1208 34.0585 32.3465 32.9834 31.9387 32.0476C31.5309 31.1117 30.5684 30.5034 29.5 30.5034C25.6558 30.4879 22.3802 27.8583 21.7301 24.2645C21.0776 20.6733 23.2417 17.1565 26.8602 15.927V15.4887C26.8602 14.1069 28.0428 12.9854 29.5001 12.9854C30.9573 12.9854 32.1399 14.1069 32.1399 15.4887V15.9296V15.927C35.299 16.9866 37.4114 19.8172 37.4168 22.996C37.4168 24.3779 36.2342 25.4968 34.777 25.4968C33.3197 25.4968 32.1399 24.3779 32.1399 22.996C32.1399 21.9828 31.4955 21.0702 30.5086 20.6835C29.5244 20.2968 28.3881 20.5108 27.635 21.2249C26.8792 21.9416 26.6535 23.0166 27.0614 23.9525C27.4692 24.8883 28.4316 25.4967 29.5 25.4967Z" fill="#FFA500"/>
</svg>
