<svg width="55" height="56" viewBox="0 0 55 56" fill="none" xmlns="http://www.w3.org/2000/svg">
<path d="M54.1243 50.5211L43.4152 39.8105C46.6569 35.7 48.6251 30.4895 48.6251 24.8158C48.6251 11.3842 37.7423 0.5 24.3125 0.5C10.8828 0.5 0 11.3842 0 24.8158C0 38.2474 10.8828 49.1316 24.3125 49.1316C29.9855 49.1316 35.1374 47.1632 39.3053 43.9211L50.0143 54.6316C50.5353 55.1526 51.3457 55.5 52.0983 55.5C52.8508 55.5 53.6033 55.2105 54.1822 54.6316C55.2821 53.4737 55.2821 51.6211 54.1243 50.5211ZM5.84658 24.8158C5.84658 14.6263 14.1244 6.34737 24.3125 6.34737C34.5006 6.34737 42.7785 14.6263 42.7785 24.8158C42.7785 35.0053 34.5006 43.2842 24.3125 43.2842C14.1244 43.2842 5.84658 35.0053 5.84658 24.8158Z" fill="#FFA500"/>
<path d="M29.5256 27.8842L38.1508 25.6842C38.556 25.5685 38.8454 25.2211 38.8454 24.8158C38.8454 24.4106 38.556 24.0632 38.1508 23.9474L29.5256 21.7474L30.7991 19.5474C31.0307 19.1421 30.9728 18.679 30.6833 18.3895C30.3939 18.1 29.9308 18.0421 29.5256 18.2737L27.3259 19.5474L25.1841 10.979C25.0683 10.5737 24.721 10.2842 24.3158 10.2842C23.9106 10.2842 23.5632 10.5737 23.4475 10.979L21.2478 19.6053L19.048 18.3316C18.6428 18.1 18.1797 18.1579 17.8903 18.4474C17.6009 18.7369 17.543 19.2 17.7745 19.6053L19.048 21.8053L10.4808 23.9474C10.0756 24.0632 9.78613 24.4106 9.78613 24.8158C9.78613 25.2211 10.0756 25.5685 10.4808 25.6842L19.1059 27.8842L17.8324 30.0842C17.6009 30.4895 17.6588 30.9527 17.9482 31.2421C18.2376 31.5316 18.7007 31.5895 19.1059 31.3579L21.3056 30.0842L23.4475 38.6527C23.5632 39.0579 23.9106 39.3474 24.3158 39.3474C24.721 39.3474 25.0683 39.0579 25.1841 38.6527L27.3838 30.0263L29.5835 31.3C29.9308 31.5316 30.3939 31.4737 30.7412 31.1842C31.0307 30.8948 31.0885 30.4316 30.857 30.0263L29.5256 27.8842ZM26.5734 24.8158C26.5734 26.0316 25.5893 27.0737 24.3158 27.0737C23.1001 27.0737 22.0582 26.0895 22.0582 24.8158C22.0582 23.6 23.0423 22.5579 24.3158 22.5579C25.5314 22.5579 26.5734 23.6 26.5734 24.8158Z" fill="#FFA500"/>
<path d="M14.9937 17.6368C16.2085 17.6368 17.1934 16.6518 17.1934 15.4368C17.1934 14.2217 16.2085 13.2368 14.9937 13.2368C13.7788 13.2368 12.7939 14.2217 12.7939 15.4368C12.7939 16.6518 13.7788 17.6368 14.9937 17.6368Z" fill="#FFA500"/>
<path d="M14.9937 36.3367C16.2085 36.3367 17.1934 35.3518 17.1934 34.1367C17.1934 32.9217 16.2085 31.9367 14.9937 31.9367C13.7788 31.9367 12.7939 32.9217 12.7939 34.1367C12.7939 35.3518 13.7788 36.3367 14.9937 36.3367Z" fill="#FFA500"/>
<path d="M33.6333 36.3367C34.8482 36.3367 35.833 35.3518 35.833 34.1367C35.833 32.9217 34.8482 31.9367 33.6333 31.9367C32.4184 31.9367 31.4336 32.9217 31.4336 34.1367C31.4336 35.3518 32.4184 36.3367 33.6333 36.3367Z" fill="#FFA500"/>
<path d="M33.689 17.6949C34.9038 17.6949 35.8887 16.7099 35.8887 15.4949C35.8887 14.2799 34.9038 13.2949 33.689 13.2949C32.4741 13.2949 31.4893 14.2799 31.4893 15.4949C31.4893 16.7099 32.4741 17.6949 33.689 17.6949Z" fill="#FFA500"/>
</svg>
