<svg width="40" height="45" viewBox="0 0 40 45" fill="none" xmlns="http://www.w3.org/2000/svg">
<path d="M8.07874 44.5H8.07922H31.9231H31.9237C33.9091 44.4974 35.8252 43.8244 37.2493 42.6099C38.6758 41.3934 39.4975 39.7256 39.5 37.9655V37.9648V22.1364V21.6364H39H37.2805H36.7805V22.1364V37.9641C36.779 39.0152 36.2892 40.0424 35.3843 40.8139C34.4769 41.5873 33.2319 42.0329 31.9198 42.0341H8.07967C6.76763 42.0329 5.52267 41.5873 4.61539 40.8138C3.71063 40.0425 3.22094 39.0154 3.21951 37.9646V7.03461C3.22118 5.98387 3.711 4.95697 4.61575 4.18582C5.52295 3.41258 6.76765 2.96716 8.07942 2.96591H26.0464H26.5464V2.46591V1V0.5H26.0464L8.07922 0.5L8.07874 0.5C6.0929 0.501916 4.17609 1.1746 2.75142 2.38916C1.32433 3.60578 0.502337 5.27398 0.5 7.03448V7.03514L0.499999 37.9658L0.500001 37.9666C0.502671 39.7269 1.3248 41.3948 2.75186 42.6112C4.17648 43.8255 6.09311 44.4981 8.07874 44.5Z" fill="white" stroke="white"/>
<path d="M8.36324 36.1669C8.36324 35.9725 8.27266 35.7861 8.11142 35.6486C7.95019 35.5112 7.7315 35.434 7.50348 35.434C7.27546 35.434 7.05678 35.5112 6.89554 35.6486C6.73431 35.7861 6.64373 35.9725 6.64373 36.1669C6.61709 37.1828 7.06387 38.1662 7.88618 38.9018C8.70848 39.6373 9.83926 40.065 11.0308 40.0912C11.2588 40.0912 11.4775 40.0139 11.6387 39.8765C11.7999 39.739 11.8905 39.5526 11.8905 39.3582C11.8905 39.1638 11.7999 38.9774 11.6387 38.8399C11.4775 38.7025 11.2588 38.6252 11.0308 38.6252C10.2953 38.5992 9.60187 38.326 9.10201 37.8653C8.60216 37.4047 8.33655 36.794 8.36324 36.1669Z" fill="white"/>
<path d="M16.4315 18.1408L16.4306 18.1416C16.245 18.3005 16.1058 18.5106 16.0429 18.7526C16.0428 18.753 16.0427 18.7533 16.0426 18.7537L14.8664 23.2253L14.8663 23.2253C14.8159 23.417 14.8167 23.6171 14.8685 23.8083C14.9202 23.9991 15.0196 24.1706 15.1525 24.3123C15.285 24.4537 15.4478 24.5625 15.6255 24.6355C15.8032 24.7085 15.9946 24.7454 16.1865 24.7457H16.1877C16.2817 24.7456 16.3756 24.7368 16.4679 24.7194L16.4692 24.7192L21.7166 23.716L21.7186 23.7156C21.8365 23.6926 21.9516 23.6555 22.0605 23.6045L22.0639 23.6029C22.0911 23.5899 22.113 23.5768 22.1286 23.5668C22.1332 23.5638 22.1375 23.561 22.1414 23.5583C22.2158 23.519 22.2867 23.4729 22.3527 23.4204L22.3595 23.4151L22.366 23.4095L22.538 23.2629L22.538 23.2629L38.6555 9.52145L38.6556 9.52141C38.9168 9.29863 39.0829 8.97779 39.0829 8.62277C39.0829 8.26774 38.9168 7.9469 38.6556 7.72412L38.6555 7.72407L34.586 4.25476L34.586 4.25471C34.3271 4.03408 33.9909 3.92065 33.6538 3.92065C33.3167 3.92065 32.9805 4.03408 32.7216 4.25471L32.7216 4.25474L16.6052 17.9927L16.6052 17.9928L16.4315 18.1408ZM18.0086 21.9042L18.4123 20.3691C18.7598 20.5091 19.0745 20.6981 19.3426 20.9267C19.561 21.1129 19.7441 21.3214 19.8889 21.5449L18.0086 21.9042ZM20.1112 18.3907L33.6535 6.84617L35.7372 8.62297L22.1656 20.1925C21.6599 19.4489 20.9514 18.8321 20.1112 18.3907Z" fill="white" stroke="white"/>
</svg>
