<svg width="24" height="20" viewBox="0 0 24 20" fill="none" xmlns="http://www.w3.org/2000/svg">
<path d="M11.9383 0.753319L11.9383 0.753321C11.8364 0.763754 11.7513 0.797018 11.6896 0.835805L11.6768 0.843874L11.665 0.853432L0.954831 9.56209C0.829153 9.65484 0.771365 9.79941 0.755285 9.92119C0.73856 10.0479 0.759379 10.2035 0.855307 10.3295L1.05403 10.1782L0.855309 10.3295C1.03671 10.5677 1.39433 10.5975 1.61671 10.4178L1.61727 10.4174L11.999 1.97769L22.3808 10.4174L22.3813 10.4178C22.6037 10.5975 22.9613 10.5677 23.1427 10.3295C23.2368 10.2059 23.2612 10.0515 23.2456 9.92285C23.2308 9.8006 23.1731 9.65198 23.0399 9.55939L12.333 0.853432L12.3211 0.84378L12.3082 0.835647C12.1766 0.753106 12.0384 0.743079 11.9383 0.753319ZM4.91722 8.28107V7.75903L4.5105 8.0863L3.94652 8.5401L3.85324 8.61515V8.73488V18.7096C3.85326 18.8506 3.90758 18.9872 4.00648 19.0891C4.10561 19.1912 4.24168 19.25 4.38521 19.25H9.1791C9.32265 19.25 9.45872 19.1912 9.55785 19.0891C9.65675 18.9872 9.71107 18.8506 9.71109 18.7096V15.8052C9.71109 14.4831 10.7331 13.4413 11.999 13.4413C13.2649 13.4413 14.2869 14.4831 14.2869 15.8052V18.7096C14.287 18.8506 14.3413 18.9872 14.4402 19.0891C14.5393 19.1912 14.6754 19.25 14.8189 19.25H19.6128C19.7564 19.25 19.8924 19.1912 19.9916 19.0891L19.8122 18.9149L19.9916 19.0891C20.0905 18.9872 20.1448 18.8506 20.1448 18.7096V8.73488V8.61515L20.0515 8.5401L19.4875 8.0863L19.0808 7.75903V8.28107V18.1691H15.3509V15.8052C15.3509 13.9093 13.8576 12.3604 11.999 12.3604C10.1405 12.3604 8.6471 13.9093 8.6471 15.8052V18.1691H4.91722V8.28107Z" fill="white" stroke="white" stroke-width="0.5"/>
</svg>
