<svg width="70" height="70" viewBox="0 0 70 70" fill="none" xmlns="http://www.w3.org/2000/svg">
<g filter="url(#filter0_d_95_659)">
<circle cx="35.0001" cy="21.9796" r="16.7999" fill="#1A202C"/>
</g>
<path d="M40.2502 21.9797C40.2502 23.3721 39.6971 24.7074 38.7125 25.692C37.7279 26.6766 36.3926 27.2297 35.0002 27.2297C33.6078 27.2297 32.2725 26.6766 31.2879 25.692C30.3033 24.7074 29.7502 23.3721 29.7502 21.9797C29.7502 21.6804 29.7817 21.3882 29.8359 21.1047H28.0002V28.0994C28.0002 28.5859 28.3939 28.9797 28.8804 28.9797H41.1217C41.3549 28.9792 41.5783 28.8863 41.743 28.7213C41.9077 28.5562 42.0002 28.3326 42.0002 28.0994V21.1047H40.1644C40.2187 21.3882 40.2502 21.6804 40.2502 21.9797ZM35.0002 25.4797C35.4599 25.4796 35.9152 25.3889 36.3399 25.2129C36.7646 25.0368 37.1504 24.7789 37.4754 24.4537C37.8004 24.1285 38.0582 23.7425 38.234 23.3177C38.4099 22.8929 38.5003 22.4377 38.5002 21.9779C38.5001 21.5182 38.4094 21.063 38.2334 20.6383C38.0573 20.2136 37.7994 19.8277 37.4742 19.5027C37.149 19.1777 36.763 18.9199 36.3382 18.7441C35.9135 18.5683 35.4582 18.4778 34.9984 18.4779C34.07 18.4782 33.1796 18.8472 32.5232 19.5039C31.8668 20.1606 31.4982 21.0512 31.4984 21.9797C31.4987 22.9082 31.8677 23.7985 32.5244 24.4549C33.1812 25.1113 34.0717 25.4799 35.0002 25.4797ZM39.2002 18.3047H41.2984C41.4378 18.3047 41.5716 18.2494 41.6703 18.151C41.769 18.0526 41.8247 17.9191 41.8252 17.7797V15.6814C41.8252 15.5417 41.7697 15.4078 41.6709 15.309C41.5721 15.2102 41.4382 15.1547 41.2984 15.1547H39.2002C39.0605 15.1547 38.9265 15.2102 38.8277 15.309C38.7289 15.4078 38.6734 15.5417 38.6734 15.6814V17.7797C38.6752 18.0684 38.9114 18.3047 39.2002 18.3047ZM35.0002 5.17969C30.5446 5.17969 26.2714 6.94968 23.1208 10.1003C19.9702 13.2509 18.2002 17.5241 18.2002 21.9797C18.2002 26.4353 19.9702 30.7085 23.1208 33.8591C26.2714 37.0097 30.5446 38.7797 35.0002 38.7797C37.2064 38.7797 39.391 38.3451 41.4293 37.5009C43.4676 36.6566 45.3196 35.4191 46.8796 33.8591C48.4396 32.2991 49.6771 30.447 50.5214 28.4088C51.3657 26.3705 51.8002 24.1859 51.8002 21.9797C51.8002 19.7735 51.3657 17.5889 50.5214 15.5506C49.6771 13.5123 48.4396 11.6603 46.8796 10.1003C45.3196 8.54027 43.4676 7.30279 41.4293 6.45851C39.391 5.61423 37.2064 5.17969 35.0002 5.17969ZM43.7502 28.7854C43.7502 29.8547 42.8752 30.7297 41.8059 30.7297H28.1944C27.1252 30.7297 26.2502 29.8547 26.2502 28.7854V15.1739C26.2502 14.1047 27.1252 13.2297 28.1944 13.2297H41.8059C42.8752 13.2297 43.7502 14.1047 43.7502 15.1739V28.7854Z" fill="white"/>
<defs>
<filter id="filter0_d_95_659" x="0.200195" y="0.179688" width="69.5996" height="69.6001" filterUnits="userSpaceOnUse" color-interpolation-filters="sRGB">
<feFlood flood-opacity="0" result="BackgroundImageFix"/>
<feColorMatrix in="SourceAlpha" type="matrix" values="0 0 0 0 0 0 0 0 0 0 0 0 0 0 0 0 0 0 127 0" result="hardAlpha"/>
<feOffset dy="13"/>
<feGaussianBlur stdDeviation="9"/>
<feColorMatrix type="matrix" values="0 0 0 0 0.0658854 0 0 0 0 0.0730469 0 0 0 0 0.1375 0 0 0 0.08 0"/>
<feBlend mode="normal" in2="BackgroundImageFix" result="effect1_dropShadow_95_659"/>
<feBlend mode="normal" in="SourceGraphic" in2="effect1_dropShadow_95_659" result="shape"/>
</filter>
</defs>
</svg>
