<svg width="803" height="94" viewBox="0 0 803 94" fill="none" xmlns="http://www.w3.org/2000/svg">
<path d="M28.032 92V22.496H0.512V2.39999H80.768V22.496H53.376V92H28.032ZM130.179 93.792C116.952 93.792 106.627 90.1653 99.203 82.912C91.779 75.6587 88.067 65.376 88.067 52.064V2.39999H113.411V51.296C113.411 58.976 114.904 64.48 117.891 67.808C120.963 71.136 125.144 72.8 130.435 72.8C135.726 72.8 139.864 71.136 142.851 67.808C145.838 64.48 147.331 58.976 147.331 51.296V2.39999H172.291V52.064C172.291 65.376 168.579 75.6587 161.155 82.912C153.731 90.1653 143.406 93.792 130.179 93.792ZM189.46 92V2.39999H210.324L259.732 62.048H249.876V2.39999H274.708V92H253.844L204.436 32.352H214.292V92H189.46ZM315.881 37.088H357.481V56.032H315.881V37.088ZM317.673 72.416H364.521V92H292.585V2.39999H362.857V21.984H317.673V72.416ZM423.257 93.792C416.174 93.792 409.604 92.6827 403.545 90.464C397.572 88.16 392.366 84.9173 387.929 80.736C383.577 76.5547 380.164 71.648 377.689 66.016C375.214 60.2987 373.977 54.0267 373.977 47.2C373.977 40.3733 375.214 34.144 377.689 28.512C380.164 22.7947 383.577 17.8453 387.929 13.664C392.366 9.48266 397.572 6.28266 403.545 4.064C409.604 1.75999 416.174 0.607994 423.257 0.607994C431.534 0.607994 438.916 2.05866 445.401 4.96C451.972 7.86133 457.433 12.0427 461.785 17.504L445.657 32.096C442.756 28.6827 439.556 26.08 436.057 24.288C432.644 22.496 428.804 21.6 424.537 21.6C420.868 21.6 417.497 22.1973 414.425 23.392C411.353 24.5867 408.708 26.336 406.489 28.64C404.356 30.8587 402.649 33.5467 401.369 36.704C400.174 39.8613 399.577 43.36 399.577 47.2C399.577 51.04 400.174 54.5387 401.369 57.696C402.649 60.8533 404.356 63.584 406.489 65.888C408.708 68.1067 411.353 69.8133 414.425 71.008C417.497 72.2027 420.868 72.8 424.537 72.8C428.804 72.8 432.644 71.904 436.057 70.112C439.556 68.32 442.756 65.7173 445.657 62.304L461.785 76.896C457.433 82.272 451.972 86.4533 445.401 89.44C438.916 92.3413 431.534 93.792 423.257 93.792ZM495.366 92V54.112L501.254 69.344L461.19 2.39999H487.942L516.87 50.912H501.382L530.438 2.39999H555.014L515.078 69.344L520.71 54.112V92H495.366ZM602.257 93.792C595.174 93.792 588.604 92.6827 582.545 90.464C576.572 88.16 571.366 84.9173 566.929 80.736C562.577 76.5547 559.164 71.648 556.689 66.016C554.214 60.2987 552.977 54.0267 552.977 47.2C552.977 40.3733 554.214 34.144 556.689 28.512C559.164 22.7947 562.577 17.8453 566.929 13.664C571.366 9.48266 576.572 6.28266 582.545 4.064C588.604 1.75999 595.174 0.607994 602.257 0.607994C610.534 0.607994 617.916 2.05866 624.401 4.96C630.972 7.86133 636.433 12.0427 640.785 17.504L624.657 32.096C621.756 28.6827 618.556 26.08 615.057 24.288C611.644 22.496 607.804 21.6 603.537 21.6C599.868 21.6 596.497 22.1973 593.425 23.392C590.353 24.5867 587.708 26.336 585.489 28.64C583.356 30.8587 581.649 33.5467 580.369 36.704C579.174 39.8613 578.577 43.36 578.577 47.2C578.577 51.04 579.174 54.5387 580.369 57.696C581.649 60.8533 583.356 63.584 585.489 65.888C587.708 68.1067 590.353 69.8133 593.425 71.008C596.497 72.2027 599.868 72.8 603.537 72.8C607.804 72.8 611.644 71.904 615.057 70.112C618.556 68.32 621.756 65.7173 624.657 62.304L640.785 76.896C636.433 82.272 630.972 86.4533 624.401 89.44C617.916 92.3413 610.534 93.792 602.257 93.792ZM652.085 92V2.39999H677.429V71.904H720.181V92H652.085ZM753.506 37.088H795.106V56.032H753.506V37.088ZM755.298 72.416H802.146V92H730.21V2.39999H800.482V21.984H755.298V72.416Z" fill="#F1F7F7"/>
</svg>
