<svg width="22" height="22" viewBox="0 0 22 22" fill="none" xmlns="http://www.w3.org/2000/svg">
<path d="M19.1978 0H15.2303C14.4651 0.0181999 14.4709 1.19817 15.2303 1.21333H19.1978C20.1039 1.21333 20.842 1.98583 20.842 2.93625V14.8796C20.842 15.8301 20.1048 16.6025 19.1978 16.6025C13.6988 16.6561 14.7486 15.9089 11.4275 20.5631C11.2258 20.8472 10.7752 20.8482 10.5706 20.5621L8.55591 17.7513C8.03196 17.0223 7.23301 16.6037 6.3646 16.6037H2.80215C1.89609 16.6037 1.15796 15.8312 1.15796 14.8808V2.93638C1.15796 1.98593 1.89515 1.21346 2.80215 1.21346H12.9145C13.6748 1.19829 13.6797 0.0183246 12.9145 0.00012787H2.80215C1.25733 0.00012787 0 1.31759 0 2.93646V14.8798C0 16.4986 1.25726 17.8161 2.80215 17.8161H6.3646C6.86634 17.8161 7.32853 18.0578 7.63056 18.4794L9.64431 21.2892C9.96659 21.7412 10.4606 22 11 22C11.5394 22 12.0334 21.7412 12.3547 21.2902L14.3694 18.4794C14.6724 18.0578 15.1337 17.8161 15.6354 17.8161H19.1979C20.7427 17.8161 22 16.4986 22 14.8798V2.93643C22 1.31765 20.7427 0 19.1978 0Z" fill="white"/>
<path d="M17.5526 4.29541H4.44917C3.69269 4.30754 3.68496 5.49459 4.44917 5.50874H17.5526C18.3091 5.49661 18.3168 4.30957 17.5526 4.29541Z" fill="white"/>
<path d="M17.5526 8.30127H4.44917C3.69269 8.3134 3.68496 9.50044 4.44917 9.5146H17.5526C18.3091 9.50247 18.3168 8.31543 17.5526 8.30127Z" fill="white"/>
<path d="M17.5526 12.3062H10.5917C9.83333 12.3193 9.82947 13.5063 10.5917 13.5195H17.5526C18.3111 13.5063 18.3149 12.3193 17.5526 12.3062Z" fill="white"/>
<path d="M4.44757 12.3062C3.68723 12.3193 3.68627 13.5064 4.44757 13.5195H7.66643C7.98582 13.5195 8.24538 13.2475 8.24538 12.9128C8.24538 12.5781 7.98582 12.3062 7.66643 12.3062H4.44658L4.44757 12.3062Z" fill="white"/>
</svg>
