<svg width="56" height="55" viewBox="0 0 56 55" fill="none" xmlns="http://www.w3.org/2000/svg">
<path d="M9.67297 0C4.57595 0 0.5 4.07609 0.5 9.17297V45.827C0.5 50.924 4.57608 55 9.67297 55H46.327C51.424 55 55.5 50.9239 55.5 45.827V9.17297C55.5 4.07596 51.4239 0 46.327 0H9.67297ZM40.2245 7.1362C43.5878 7.1362 46.3272 9.8731 46.3272 13.2363C46.3272 16.6021 43.5878 19.3492 40.2245 19.3492C37.2101 19.3492 34.6922 17.1419 34.2008 14.2649H10.6811C10.1185 14.2624 9.66528 13.8041 9.66782 13.2414C9.67036 12.6813 10.1235 12.2281 10.6811 12.2281H34.1982C34.6844 9.34354 37.205 7.1362 40.2245 7.1362ZM40.2245 8.92347C34.5572 8.92347 34.5699 17.562 40.2245 17.562C42.6203 17.562 44.5374 15.6347 44.5374 13.2364C44.5374 10.8406 42.6203 8.92347 40.2245 8.92347ZM15.9032 21.3859C18.9202 21.3859 21.4407 23.5983 21.9295 26.4804L45.3143 26.4753C45.8769 26.4778 46.3301 26.9361 46.3276 27.4988C46.325 28.0589 45.8744 28.5121 45.3143 28.5121L21.9295 28.5171C21.4407 31.3992 18.9202 33.6116 15.9032 33.6116C12.54 33.6116 9.79035 30.8619 9.79035 27.4988C9.79035 24.1356 12.54 21.3859 15.9032 21.3859ZM15.9032 23.1757C13.5074 23.1757 11.5827 25.1005 11.5827 27.4988C11.5827 29.8971 13.5074 31.8218 15.9032 31.8218C18.3015 31.8218 20.2262 29.8971 20.2262 27.4988C20.2262 25.1005 18.3015 23.1757 15.9032 23.1757ZM40.2245 35.6486C43.5878 35.6486 46.3272 38.388 46.3272 41.7513C46.3272 45.1171 43.5878 47.8641 40.2245 47.8641C37.2101 47.8641 34.6922 45.6568 34.2008 42.7798H10.6811C10.1185 42.7773 9.66528 42.319 9.66782 41.7564C9.67036 41.1962 10.1235 40.7431 10.6811 40.7431H34.1982C34.6844 37.8585 37.205 35.6486 40.2245 35.6486ZM40.2245 37.4384C37.8262 37.4384 35.9015 39.3555 35.9015 41.7513C35.9015 44.1496 37.8262 46.0743 40.2245 46.0743C42.6203 46.0743 44.5374 44.1496 44.5374 41.7513C44.5374 39.3555 42.6203 37.4384 40.2245 37.4384Z" fill="#FFA500"/>
</svg>
