<svg width="168" height="94" viewBox="0 0 168 94" fill="none" xmlns="http://www.w3.org/2000/svg">
<path fill-rule="evenodd" clip-rule="evenodd" d="M108.92 90.064C114.978 92.2827 121.549 93.392 128.632 93.392C136.909 93.392 144.29 91.9413 150.776 89.04C157.346 86.0533 162.808 81.872 167.16 76.496L151.032 61.904C148.13 65.3173 144.93 67.92 141.432 69.712C138.018 71.504 134.178 72.4 129.912 72.4C126.242 72.4 122.872 71.8027 119.8 70.608C116.728 69.4133 114.082 67.7067 111.864 65.488C109.73 63.184 108.024 60.4533 106.744 57.296C105.549 54.1387 104.952 50.64 104.952 46.8C104.952 42.96 105.549 39.4613 106.744 36.304C108.024 33.1467 109.73 30.4587 111.864 28.24C114.082 25.936 116.728 24.1867 119.8 22.992C122.872 21.7973 126.242 21.2 129.912 21.2C134.178 21.2 138.018 22.096 141.432 23.888C144.93 25.68 148.13 28.2827 151.032 31.696L167.16 17.104C162.808 11.6427 157.346 7.46134 150.776 4.56001C144.29 1.65868 136.909 0.208008 128.632 0.208008C121.549 0.208008 114.978 1.36001 108.92 3.66401C102.946 5.88268 97.7411 9.08268 93.3037 13.264C88.9517 17.4453 85.5384 22.3947 83.0637 28.112C80.5891 33.744 79.3517 39.9733 79.3517 46.8C79.3517 53.6267 80.5891 59.8987 83.0637 65.616C85.5384 71.248 88.9517 76.1547 93.3037 80.336C97.7411 84.5173 102.946 87.76 108.92 90.064ZM28.0317 22.096V91.6H53.3757V22.096H80.7677V2.00001H0.511719V22.096H28.0317Z" fill="#00DF82"/>
<path fill-rule="evenodd" clip-rule="evenodd" d="M108.92 90.064C114.978 92.2827 121.549 93.392 128.632 93.392C136.909 93.392 144.29 91.9413 150.776 89.04C157.346 86.0533 162.808 81.872 167.16 76.496L151.032 61.904C148.13 65.3173 144.93 67.92 141.432 69.712C138.018 71.504 134.178 72.4 129.912 72.4C126.242 72.4 122.872 71.8027 119.8 70.608C116.728 69.4133 114.082 67.7067 111.864 65.488C109.73 63.184 108.024 60.4533 106.744 57.296C105.549 54.1387 104.952 50.64 104.952 46.8C104.952 42.96 105.549 39.4613 106.744 36.304C108.024 33.1467 109.73 30.4587 111.864 28.24C114.082 25.936 116.728 24.1867 119.8 22.992C122.872 21.7973 126.242 21.2 129.912 21.2C134.178 21.2 138.018 22.096 141.432 23.888C144.93 25.68 148.13 28.2827 151.032 31.696L167.16 17.104C162.808 11.6427 157.346 7.46134 150.776 4.56001C144.29 1.65868 136.909 0.208008 128.632 0.208008C121.549 0.208008 114.978 1.36001 108.92 3.66401C102.946 5.88268 97.7411 9.08268 93.3037 13.264C88.9517 17.4453 85.5384 22.3947 83.0637 28.112C80.5891 33.744 79.3517 39.9733 79.3517 46.8C79.3517 53.6267 80.5891 59.8987 83.0637 65.616C85.5384 71.248 88.9517 76.1547 93.3037 80.336C97.7411 84.5173 102.946 87.76 108.92 90.064ZM28.0317 22.096V91.6H53.3757V22.096H80.7677V2.00001H0.511719V22.096H28.0317Z" fill="url(#paint0_linear_518_9625)"/>
<defs>
<linearGradient id="paint0_linear_518_9625" x1="-12.6572" y1="4.47211" x2="180.053" y2="127.258" gradientUnits="userSpaceOnUse">
<stop offset="0.18741" stop-color="#E90095"/>
<stop offset="0.778139" stop-color="#00FFFF"/>
</linearGradient>
</defs>
</svg>
