<svg width="22" height="22" viewBox="0 0 22 22" fill="none" xmlns="http://www.w3.org/2000/svg">
<path d="M20.1663 15.3449V4.28072C20.1663 3.18072 19.268 2.36489 18.1772 2.45655H18.1222C16.1972 2.62155 13.273 3.60239 11.6413 4.62906L11.4855 4.72989C11.2197 4.89489 10.7797 4.89489 10.5138 4.72989L10.2847 4.59239C8.65301 3.57489 5.73801 2.60322 3.81301 2.44739C2.72217 2.35572 1.83301 3.18072 1.83301 4.27155V15.3449C1.83301 16.2249 2.54801 17.0499 3.42801 17.1599L3.69384 17.1966C5.68301 17.4624 8.75384 18.4707 10.5138 19.4332L10.5505 19.4516C10.798 19.5891 11.1922 19.5891 11.4305 19.4516C13.1905 18.4799 16.2705 17.4624 18.2688 17.1966L18.5713 17.1599C19.4513 17.0499 20.1663 16.2249 20.1663 15.3449Z" stroke="#E1E1E1" stroke-width="1.5" stroke-linecap="round" stroke-linejoin="round"/>
<path d="M11 5.03271V18.7827" stroke="#E1E1E1" stroke-width="1.5" stroke-linecap="round" stroke-linejoin="round"/>
<path d="M7.10449 7.78271H5.04199" stroke="#E1E1E1" stroke-width="1.5" stroke-linecap="round" stroke-linejoin="round"/>
<path d="M7.79199 10.5327H5.04199" stroke="#E1E1E1" stroke-width="1.5" stroke-linecap="round" stroke-linejoin="round"/>
</svg>
