<svg width="225" height="21" viewBox="0 0 225 21" fill="none" xmlns="http://www.w3.org/2000/svg">
<path d="M55.132 20V4.796H49.112V0.399999H66.668V4.796H60.676V20H55.132Z" fill="#F1F7F7"/>
<path d="M77.4767 20.392C74.5833 20.392 72.3247 19.5987 70.7007 18.012C69.0767 16.4253 68.2647 14.176 68.2647 11.264V0.399999H73.8087V11.096C73.8087 12.776 74.1353 13.98 74.7887 14.708C75.4607 15.436 76.3753 15.8 77.5327 15.8C78.69 15.8 79.5953 15.436 80.2487 14.708C80.902 13.98 81.2287 12.776 81.2287 11.096V0.399999H86.6887V11.264C86.6887 14.176 85.8767 16.4253 84.2527 18.012C82.6287 19.5987 80.37 20.392 77.4767 20.392Z" fill="#F1F7F7"/>
<path d="M90.4444 20V0.399999H95.0084L105.816 13.448H103.66V0.399999H109.092V20H104.528L93.7204 6.952H95.8764V20H90.4444Z" fill="#F1F7F7"/>
<path d="M118.099 7.988H127.199V12.132H118.099V7.988ZM118.491 15.716H128.739V20H113.003V0.399999H128.375V4.684H118.491V15.716Z" fill="#F1F7F7"/>
<path d="M141.587 20.392C140.038 20.392 138.601 20.1493 137.275 19.664C135.969 19.16 134.83 18.4507 133.859 17.536C132.907 16.6213 132.161 15.548 131.619 14.316C131.078 13.0653 130.807 11.6933 130.807 10.2C130.807 8.70667 131.078 7.344 131.619 6.112C132.161 4.86133 132.907 3.77867 133.859 2.864C134.83 1.94933 135.969 1.24933 137.275 0.763999C138.601 0.259999 140.038 0.0079987 141.587 0.0079987C143.398 0.0079987 145.013 0.325332 146.431 0.96C147.869 1.59467 149.063 2.50933 150.015 3.704L146.487 6.896C145.853 6.14933 145.153 5.58 144.387 5.188C143.641 4.796 142.801 4.6 141.867 4.6C141.065 4.6 140.327 4.73067 139.655 4.992C138.983 5.25333 138.405 5.636 137.919 6.14C137.453 6.62533 137.079 7.21333 136.799 7.904C136.538 8.59467 136.407 9.36 136.407 10.2C136.407 11.04 136.538 11.8053 136.799 12.496C137.079 13.1867 137.453 13.784 137.919 14.288C138.405 14.7733 138.983 15.1467 139.655 15.408C140.327 15.6693 141.065 15.8 141.867 15.8C142.801 15.8 143.641 15.604 144.387 15.212C145.153 14.82 145.853 14.2507 146.487 13.504L150.015 16.696C149.063 17.872 147.869 18.7867 146.431 19.44C145.013 20.0747 143.398 20.392 141.587 20.392Z" fill="#F1F7F7"/>
<path d="M157.361 20V11.712L158.649 15.044L149.885 0.399999H155.737L162.065 11.012H158.677L165.033 0.399999H170.409L161.673 15.044L162.905 11.712V20H157.361Z" fill="#F1F7F7"/>
<path d="M180.744 20.392C179.194 20.392 177.757 20.1493 176.432 19.664C175.125 19.16 173.986 18.4507 173.016 17.536C172.064 16.6213 171.317 15.548 170.776 14.316C170.234 13.0653 169.964 11.6933 169.964 10.2C169.964 8.70667 170.234 7.344 170.776 6.112C171.317 4.86133 172.064 3.77867 173.016 2.864C173.986 1.94933 175.125 1.24933 176.432 0.763999C177.757 0.259999 179.194 0.0079987 180.744 0.0079987C182.554 0.0079987 184.169 0.325332 185.588 0.96C187.025 1.59467 188.22 2.50933 189.172 3.704L185.644 6.896C185.009 6.14933 184.309 5.58 183.544 5.188C182.797 4.796 181.957 4.6 181.024 4.6C180.221 4.6 179.484 4.73067 178.812 4.992C178.14 5.25333 177.561 5.636 177.076 6.14C176.609 6.62533 176.236 7.21333 175.956 7.904C175.694 8.59467 175.564 9.36 175.564 10.2C175.564 11.04 175.694 11.8053 175.956 12.496C176.236 13.1867 176.609 13.784 177.076 14.288C177.561 14.7733 178.14 15.1467 178.812 15.408C179.484 15.6693 180.221 15.8 181.024 15.8C181.957 15.8 182.797 15.604 183.544 15.212C184.309 14.82 185.009 14.2507 185.644 13.504L189.172 16.696C188.22 17.872 187.025 18.7867 185.588 19.44C184.169 20.0747 182.554 20.392 180.744 20.392Z" fill="#F1F7F7"/>
<path d="M191.644 20V0.399999H197.188V15.604H206.54V20H191.644Z" fill="#F1F7F7"/>
<path d="M213.829 7.988H222.929V12.132H213.829V7.988ZM214.221 15.716H224.469V20H208.733V0.399999H224.105V4.684H214.221V15.716Z" fill="#F1F7F7"/>
<path d="M24.7958 19.6638C26.1211 20.1491 27.5585 20.3918 29.1078 20.3918C30.9185 20.3918 32.5331 20.0745 33.9518 19.4398C35.3891 18.7865 36.5838 17.8718 37.5358 16.6958L34.0078 13.5038C33.3731 14.2505 32.6731 14.8198 31.9078 15.2118C31.1611 15.6038 30.3211 15.7998 29.3878 15.7998C28.5851 15.7998 27.8478 15.6691 27.1758 15.4078C26.5038 15.1465 25.9251 14.7731 25.4398 14.2878C24.9731 13.7838 24.5998 13.1865 24.3198 12.4958C24.0585 11.8051 23.9278 11.0398 23.9278 10.1998C23.9278 9.35981 24.0585 8.59448 24.3198 7.90381C24.5998 7.21315 24.9731 6.62515 25.4398 6.13981C25.9251 5.63581 26.5038 5.25315 27.1758 4.99181C27.8478 4.73048 28.5851 4.59981 29.3878 4.59981C30.3211 4.59981 31.1611 4.79581 31.9078 5.18781C32.6731 5.57981 33.3731 6.14915 34.0078 6.89581L37.5358 3.70381C36.5838 2.50915 35.3891 1.59448 33.9518 0.959814C32.5331 0.325146 30.9185 0.0078125 29.1078 0.0078125C27.5585 0.0078125 26.1211 0.259813 24.7958 0.763813C23.4891 1.24915 22.3505 1.94915 21.3798 2.86381C20.4278 3.77848 19.6811 4.86115 19.1398 6.11181C18.5985 7.34381 18.3278 8.70648 18.3278 10.1998C18.3278 11.6931 18.5985 13.0651 19.1398 14.3158C19.6811 15.5478 20.4278 16.6211 21.3798 17.5358C22.3505 18.4505 23.4891 19.1598 24.7958 19.6638Z" fill="#00DF82"/>
<path d="M24.7958 19.6638C26.1211 20.1491 27.5585 20.3918 29.1078 20.3918C30.9185 20.3918 32.5331 20.0745 33.9518 19.4398C35.3891 18.7865 36.5838 17.8718 37.5358 16.6958L34.0078 13.5038C33.3731 14.2505 32.6731 14.8198 31.9078 15.2118C31.1611 15.6038 30.3211 15.7998 29.3878 15.7998C28.5851 15.7998 27.8478 15.6691 27.1758 15.4078C26.5038 15.1465 25.9251 14.7731 25.4398 14.2878C24.9731 13.7838 24.5998 13.1865 24.3198 12.4958C24.0585 11.8051 23.9278 11.0398 23.9278 10.1998C23.9278 9.35981 24.0585 8.59448 24.3198 7.90381C24.5998 7.21315 24.9731 6.62515 25.4398 6.13981C25.9251 5.63581 26.5038 5.25315 27.1758 4.99181C27.8478 4.73048 28.5851 4.59981 29.3878 4.59981C30.3211 4.59981 31.1611 4.79581 31.9078 5.18781C32.6731 5.57981 33.3731 6.14915 34.0078 6.89581L37.5358 3.70381C36.5838 2.50915 35.3891 1.59448 33.9518 0.959814C32.5331 0.325146 30.9185 0.0078125 29.1078 0.0078125C27.5585 0.0078125 26.1211 0.259813 24.7958 0.763813C23.4891 1.24915 22.3505 1.94915 21.3798 2.86381C20.4278 3.77848 19.6811 4.86115 19.1398 6.11181C18.5985 7.34381 18.3278 8.70648 18.3278 10.1998C18.3278 11.6931 18.5985 13.0651 19.1398 14.3158C19.6811 15.5478 20.4278 16.6211 21.3798 17.5358C22.3505 18.4505 23.4891 19.1598 24.7958 19.6638Z" fill="url(#paint0_linear_584_7995)"/>
<path d="M24.7958 19.6638C26.1211 20.1491 27.5585 20.3918 29.1078 20.3918C30.9185 20.3918 32.5331 20.0745 33.9518 19.4398C35.3891 18.7865 36.5838 17.8718 37.5358 16.6958L34.0078 13.5038C33.3731 14.2505 32.6731 14.8198 31.9078 15.2118C31.1611 15.6038 30.3211 15.7998 29.3878 15.7998C28.5851 15.7998 27.8478 15.6691 27.1758 15.4078C26.5038 15.1465 25.9251 14.7731 25.4398 14.2878C24.9731 13.7838 24.5998 13.1865 24.3198 12.4958C24.0585 11.8051 23.9278 11.0398 23.9278 10.1998C23.9278 9.35981 24.0585 8.59448 24.3198 7.90381C24.5998 7.21315 24.9731 6.62515 25.4398 6.13981C25.9251 5.63581 26.5038 5.25315 27.1758 4.99181C27.8478 4.73048 28.5851 4.59981 29.3878 4.59981C30.3211 4.59981 31.1611 4.79581 31.9078 5.18781C32.6731 5.57981 33.3731 6.14915 34.0078 6.89581L37.5358 3.70381C36.5838 2.50915 35.3891 1.59448 33.9518 0.959814C32.5331 0.325146 30.9185 0.0078125 29.1078 0.0078125C27.5585 0.0078125 26.1211 0.259813 24.7958 0.763813C23.4891 1.24915 22.3505 1.94915 21.3798 2.86381C20.4278 3.77848 19.6811 4.86115 19.1398 6.11181C18.5985 7.34381 18.3278 8.70648 18.3278 10.1998C18.3278 11.6931 18.5985 13.0651 19.1398 14.3158C19.6811 15.5478 20.4278 16.6211 21.3798 17.5358C22.3505 18.4505 23.4891 19.1598 24.7958 19.6638Z" fill="url(#paint1_linear_584_7995)"/>
<path d="M6.02 4.79581V19.9998H11.564V4.79581H17.556V0.399812H0V4.79581H6.02Z" fill="#00DF82"/>
<path d="M6.02 4.79581V19.9998H11.564V4.79581H17.556V0.399812H0V4.79581H6.02Z" fill="url(#paint2_linear_584_7995)"/>
<path d="M6.02 4.79581V19.9998H11.564V4.79581H17.556V0.399812H0V4.79581H6.02Z" fill="url(#paint3_linear_584_7995)"/>
<defs>
<linearGradient id="paint0_linear_584_7995" x1="-327.023" y1="0.540688" x2="-285.921" y2="68.8211" gradientUnits="userSpaceOnUse">
<stop offset="0.18741" stop-color="#E90095"/>
<stop offset="0.307548" stop-color="#BA34AB"/>
<stop offset="0.778139" stop-color="#00FFFF"/>
</linearGradient>
<linearGradient id="paint1_linear_584_7995" x1="-2.96619" y1="0.940586" x2="39.6981" y2="28.9309" gradientUnits="userSpaceOnUse">
<stop offset="0.18741" stop-color="#E90095"/>
<stop offset="0.778139" stop-color="#00FFFF"/>
</linearGradient>
<linearGradient id="paint2_linear_584_7995" x1="-327.023" y1="0.540688" x2="-285.921" y2="68.8211" gradientUnits="userSpaceOnUse">
<stop offset="0.18741" stop-color="#E90095"/>
<stop offset="0.307548" stop-color="#BA34AB"/>
<stop offset="0.778139" stop-color="#00FFFF"/>
</linearGradient>
<linearGradient id="paint3_linear_584_7995" x1="-2.96619" y1="0.940586" x2="39.6981" y2="28.9309" gradientUnits="userSpaceOnUse">
<stop offset="0.18741" stop-color="#E90095"/>
<stop offset="0.778139" stop-color="#00FFFF"/>
</linearGradient>
</defs>
</svg>
