<svg width="38" height="35" viewBox="0 0 38 35" fill="none" xmlns="http://www.w3.org/2000/svg">
<path fill-rule="evenodd" clip-rule="evenodd" d="M12.9519 6.49574C12.9519 3.18283 15.6577 0.5 18.9994 0.5C22.3411 0.5 25.0469 3.18263 25.0469 6.49574C25.0469 9.29656 23.1079 11.6525 20.4896 12.31V20.4759L27.423 24.5254C28.5355 23.2885 30.1487 22.5085 31.9525 22.5085C35.294 22.5085 38 25.1912 38 28.5043C38 31.8172 35.2942 34.5 31.9525 34.5C28.6108 34.5 25.9015 31.8134 25.9015 28.5043C25.9015 27.9607 25.9769 27.4328 26.116 26.9325L18.9959 22.7726L11.884 26.9246C12.0231 27.4288 12.0985 27.9567 12.0985 28.5043C12.0985 31.8132 9.38879 34.5 6.05105 34.5C2.71331 34.5 0 31.8134 0 28.5043C0 25.1951 2.70975 22.5085 6.05105 22.5085C7.84694 22.5085 9.46406 23.2846 10.5726 24.5215L17.7364 20.338V12.3611C15.0028 11.786 12.9526 9.3791 12.9526 6.49549L12.9519 6.49574Z" fill="white"/>
</svg>
