<svg width="70" height="55" viewBox="0 0 70 55" fill="none" xmlns="http://www.w3.org/2000/svg">
<path fill-rule="evenodd" clip-rule="evenodd" d="M17.606 14.6744C19.1782 14.6744 20.6995 14.9101 22.1489 15.3507C24.2871 6.50055 31.3937 0 39.8289 0C48.2826 0 55.3984 6.52407 57.5213 15.4014C61.6419 15.9479 64.8432 19.941 64.8432 24.7876C64.8432 25.9729 64.6516 27.1034 64.3042 28.1487C67.7331 30.7925 70 35.2672 70 40.3191C70 48.394 64.2083 55 57.129 55H40.5414V37.8287H45.7731L35.0011 24.6204L24.2292 37.8287H29.4608V55H17.4646C16.108 55 14.7993 54.7541 13.5656 54.3066C5.79114 52.223 0 44.2611 0 34.7586C0 23.6708 7.88174 14.6772 17.6057 14.6772L17.606 14.6744Z" fill="#FFA500"/>
</svg>
