<svg width="22" height="22" viewBox="0 0 22 22" fill="none" xmlns="http://www.w3.org/2000/svg">
<path d="M17.1113 9.25453C17.11 9.60783 17.3228 9.92706 17.6488 10.0621C17.9748 10.1985 18.3513 10.1235 18.601 9.87521C18.8506 9.62558 18.9256 9.24906 18.7906 8.92302C18.6555 8.59699 18.3377 8.38281 17.9844 8.38281C17.5029 8.38281 17.1127 8.77298 17.1113 9.25453ZM17.9844 9.07855C18.0812 9.07855 18.159 9.15767 18.159 9.25453C18.159 9.4496 17.8098 9.4496 17.8098 9.25453C17.8098 9.15767 17.8875 9.07855 17.9844 9.07855Z" fill="white"/>
<path d="M17.9843 0H4.01592C1.79924 0.00272812 0.00279368 1.7993 0 4.01606V16.2388C0 18.0218 0.825288 19.7038 2.23575 20.7951C3.64488 21.8865 5.48096 22.263 7.20641 21.8155C8.93199 21.3681 10.3534 20.1472 11.0558 18.5088H17.9841C20.2008 18.5061 21.9972 16.7095 22 14.4928V4.01609C21.9973 1.79933 20.201 0.00279378 17.9843 0ZM5.76197 20.9533C3.85497 20.9533 2.13612 19.8047 1.40627 18.0436C0.67649 16.2811 1.08025 14.2539 2.42799 12.9048C3.77709 11.557 5.80415 11.1532 7.56662 11.8831C9.32769 12.6129 10.4762 14.3317 10.4762 16.2389C10.4735 18.8417 8.36467 20.9505 5.76197 20.9533ZM20.9526 12.1997H17.9611C16.3351 12.1997 15.016 10.8806 15.016 9.25453C15.016 7.62845 16.3351 6.30933 17.9611 6.30933H20.9526V12.1997ZM20.9526 5.26173H17.9611C15.7554 5.26173 13.9683 7.04877 13.9683 9.25474C13.9683 11.4607 15.7552 13.2477 17.9611 13.2477H20.9526V14.4932C20.9513 16.1316 19.6226 17.4602 17.9843 17.4616H11.3902C11.7722 15.7141 11.3193 13.8891 10.1666 12.5219C9.01392 11.155 7.29106 10.402 5.50533 10.4825C3.71836 10.5643 2.0719 11.4715 1.04732 12.9366V4.01637C1.04868 2.37803 2.37732 1.04934 4.0156 1.04798H17.984C19.6223 1.04935 20.9509 2.37803 20.9523 4.01637L20.9526 5.26173Z" fill="white"/>
<path d="M7.15109 14.8076L5.26863 16.5701L4.37242 15.7393C4.16098 15.5429 3.8295 15.5552 3.63171 15.7666C3.43528 15.9794 3.44756 16.3109 3.66036 16.5073L4.91395 17.6696L4.91259 17.6709C5.11447 17.8578 5.42551 17.8565 5.62738 17.6696L7.86589 15.5742C8.07733 15.3764 8.08824 15.045 7.89045 14.8335C7.69402 14.6221 7.36254 14.6112 7.1511 14.809L7.15109 14.8076Z" fill="white"/>
</svg>
