<svg width="35" height="34" viewBox="0 0 35 34" fill="none" xmlns="http://www.w3.org/2000/svg">
<path d="M17.3996 0.179688C8.12111 0.179688 0.599609 7.70119 0.599609 16.9797C0.599609 26.2582 8.12111 33.7797 17.3996 33.7797C26.6781 33.7797 34.1996 26.2582 34.1996 16.9797C34.1996 7.70119 26.6781 0.179688 17.3996 0.179688ZM24.2334 13.9417C24.2404 14.0852 24.2421 14.2287 24.2421 14.3687C24.2421 18.7437 20.9154 23.7854 14.8289 23.7854C13.0304 23.7884 11.2693 23.2719 9.75736 22.2979C10.0146 22.3294 10.2789 22.3417 10.5466 22.3417C12.0971 22.3417 13.5234 21.8149 14.6556 20.9259C13.9656 20.9124 13.297 20.6839 12.7431 20.2723C12.1891 19.8608 11.7773 19.2866 11.5651 18.6299C12.0606 18.7242 12.5711 18.7044 13.0579 18.5722C12.3089 18.4207 11.6355 18.0149 11.1516 17.4236C10.6677 16.8323 10.4033 16.0918 10.4031 15.3277V15.2874C10.8494 15.5342 11.3604 15.6847 11.9029 15.7022C11.2008 15.2348 10.7037 14.5169 10.5134 13.6952C10.3231 12.8735 10.454 12.0101 10.8791 11.2817C11.7103 12.3037 12.7468 13.1397 13.9216 13.7357C15.0964 14.3317 16.3833 14.6743 17.6989 14.7414C17.5316 14.0315 17.6036 13.2861 17.9036 12.6213C18.2037 11.9565 18.7149 11.4094 19.358 11.0652C20.001 10.7209 20.7398 10.5987 21.4594 10.7176C22.1791 10.8365 22.8393 11.1899 23.3374 11.7227C24.0779 11.5762 24.7881 11.3045 25.4374 10.9194C25.1905 11.6862 24.6738 12.3372 23.9831 12.7517C24.6391 12.6727 25.2796 12.4963 25.8836 12.2284C25.44 12.8933 24.8811 13.4735 24.2334 13.9417Z" fill="white"/>
</svg>
